<svg width="200" height="200" viewBox="0 0 200 200" fill="none" xmlns="http://www.w3.org/2000/svg">
<g clip-path="url(#clip0_60_3)">
<path d="M146.578 26.2345C147.777 27.1085 147.777 27.1085 149 28.0001C149.634 28.4384 150.268 28.8767 150.922 29.3282C161.773 37.5914 167.807 50.8638 170 64.0001C170.064 65.6032 170.086 67.2085 170.062 68.8126C170.053 69.6028 170.044 70.393 170.035 71.2071C170.018 72.0947 170.018 72.0947 170 73.0001C171.64 73.0311 171.64 73.0311 173.312 73.0626C181.916 74.1609 188.99 80.3435 194.465 86.715C199.382 94.0347 200.638 99.6536 200.5 108.5C200.523 109.991 200.523 109.991 200.547 111.512C200.492 121.962 196.595 128.12 189.578 135.66C183.224 141.427 175.873 145.105 167.263 145.145C165.862 145.155 165.862 145.155 164.432 145.165C163.431 145.166 162.43 145.167 161.398 145.168C159.849 145.173 159.849 145.173 158.269 145.178C156.088 145.183 153.908 145.186 151.727 145.185C148.381 145.188 145.034 145.206 141.687 145.225C139.57 145.228 137.453 145.23 135.336 145.231C133.828 145.241 133.828 145.241 132.29 145.252C131.362 145.249 130.434 145.246 129.478 145.243C128.25 145.245 128.25 145.245 126.998 145.247C125 145 125 145 123 143C122.75 140 122.75 140 123 137C126.105 133.895 129.863 134.702 134.031 134.692C135.893 134.666 137.755 134.641 139.617 134.615C142.548 134.587 145.48 134.563 148.411 134.544C151.243 134.522 154.074 134.482 156.906 134.442C157.767 134.441 158.628 134.441 159.515 134.441C167.58 134.312 175.99 132.757 182.465 127.629C187.602 122.178 189.834 115.174 190.199 107.805C189.657 100.166 186.585 93.2046 181 88.0001C175.833 84.4496 170.572 83.3625 164.418 82.59C161.544 81.8888 160.583 81.5099 159 79.0001C158.695 76.4209 158.542 74.0202 158.5 71.4376C157.947 58.2098 153.874 46.808 143.984 37.5314C134.119 29.9187 121.499 26.9996 109.25 28.5001C99.2369 30.4252 88.0037 35.4564 81.9999 44.0001C80.0428 47.3626 78.2283 50.7314 76.4804 54.2071C74.9999 57.0001 74.9999 57.0001 72.9999 59.0001C70.6874 59.3751 70.6874 59.3751 67.9999 59.0001C66.3082 57.6988 64.6429 56.3626 62.9999 55.0001C57.1639 52.4627 51.8497 52.2163 45.8124 54.1876C41.2298 56.0756 39.0742 58.8515 36.8749 63.2501C35.9694 65.8828 35.9694 65.8828 35.6132 68.2111C34.489 74.5852 34.489 74.5852 31.9374 76.7501C30.968 77.1626 29.9987 77.5751 28.9999 78.0001C21.2596 81.7703 16.4048 85.6879 12.1874 93.2501C9.3949 102.069 8.91981 111.016 13.2265 119.383C18.1135 127.301 23.4963 131.024 32.4264 133.371C40.2117 134.741 48.1779 134.507 56.0624 134.563C58.75 134.586 61.4372 134.614 64.1245 134.654C65.786 134.679 67.4477 134.694 69.1093 134.698C74.7753 134.775 74.7753 134.775 76.9999 137C77.2499 140 77.2499 140 76.9999 143C74.6266 145.373 74.1345 145.258 70.9084 145.291C70.0631 145.303 69.2179 145.316 68.347 145.329C66.9706 145.333 66.9706 145.333 65.5663 145.336C64.1448 145.346 64.1448 145.346 62.6945 145.356C60.6812 145.366 58.6678 145.371 56.6545 145.371C53.6056 145.375 50.5583 145.411 47.5097 145.449C32.2663 145.538 21.1314 143.88 9.87102 132.93C1.83118 124.431 -0.750392 116.768 -0.625077 105.125C-0.615973 104.06 -0.606869 102.995 -0.597489 101.898C-0.364513 93.9862 0.679243 88.12 5.99992 82.0001C7.03246 80.78 7.03246 80.78 8.08586 79.5353C11.7058 75.6169 15.0375 72.8201 19.8749 70.5626C22.6052 69.1951 23.7429 68.5654 25.0195 65.7579C25.468 64.0319 25.8883 62.2983 26.2812 60.5587C28.3589 53.1623 34.6219 47.8589 40.9999 44.0001C47.4707 40.8192 55.8777 40.6241 62.6913 42.8986C64.8749 44.0001 64.8749 44.0001 67.9999 46.0001C68.4962 45.2873 68.9925 44.5744 69.5038 43.84C87.8481 17.977 118.744 7.08861 146.578 26.2345Z" fill="url(#paint0_linear_60_3)"/>
<path d="M99 85C104.567 87.3273 108.489 92.0408 112.701 96.2207C114.245 97.7454 115.809 99.2474 117.375 100.75C118.361 101.723 119.345 102.697 120.328 103.672C121.224 104.549 122.121 105.427 123.044 106.331C125.385 109.525 125.579 111.124 125 115C123 117 123 117 120.242 117.469C115.906 116.842 113.94 114.613 111.125 111.5C110.627 110.975 110.13 110.451 109.617 109.91C108.397 108.62 107.197 107.312 106 106C105.992 106.86 105.984 107.72 105.975 108.606C105.898 116.699 105.81 124.793 105.712 132.886C105.662 137.047 105.616 141.208 105.578 145.369C105.541 149.383 105.495 153.396 105.442 157.41C105.423 158.943 105.408 160.477 105.397 162.01C105.38 164.153 105.351 166.296 105.319 168.439C105.306 169.66 105.292 170.882 105.278 172.14C105 175 105 175 103 177C100 177.25 100 177.25 97 177C94.1895 174.19 94.7241 172.378 94.6812 168.439C94.6711 167.766 94.6611 167.092 94.6507 166.399C94.6198 164.169 94.6028 161.94 94.5859 159.711C94.5672 158.167 94.5477 156.623 94.5273 155.079C94.4758 151.011 94.4363 146.944 94.3991 142.877C94.3591 138.728 94.308 134.579 94.2578 130.43C94.1609 122.287 94.0766 114.143 94 106C93.2755 106.794 92.5511 107.588 91.8047 108.406C90.8289 109.438 89.8523 110.469 88.875 111.5C88.4006 112.025 87.9263 112.549 87.4375 113.09C84.9003 115.73 83.4257 116.938 79.7578 117.469C77 117 77 117 75 115C74.5469 112.24 74.5469 112.24 75 109C76.6972 106.778 78.2405 105.055 80.25 103.164C80.7827 102.64 81.3154 102.116 81.8643 101.576C83.5626 99.9107 85.2806 98.268 87 96.625C88.1576 95.4975 89.3139 94.3686 90.4688 93.2383C93.2971 90.4759 96.1434 87.7332 99 85Z" fill="url(#paint1_linear_60_3)"/>
</g>
<defs>
<linearGradient id="paint0_linear_60_3" x1="100" y1="85.5" x2="99.9587" y2="145.453" gradientUnits="userSpaceOnUse">
<stop stop-color="#FA7275"/>
<stop offset="1" stop-color="white"/>
</linearGradient>
<linearGradient id="paint1_linear_60_3" x1="100" y1="85" x2="100" y2="131" gradientUnits="userSpaceOnUse">
<stop stop-color="white"/>
<stop offset="1" stop-color="#FA7275"/>
</linearGradient>
<clipPath id="clip0_60_3">
<rect width="200" height="200" fill="white"/>
</clipPath>
</defs>
</svg>
